<mxfile host="app.diagrams.net" modified="2023-04-17T03:08:15.444Z" agent="Mozilla/5.0 (Windows NT 10.0; Win64; x64) AppleWebKit/537.36 (KHTML, like Gecko) Chrome/110.0.0.0 Safari/537.36" etag="qx2cpXSBe7SRf-K9E_XS" version="21.1.1" type="github">
  <diagram name="第 1 页" id="tjX4YTnmIuih3HkXrU-7">
    <mxGraphModel dx="733" dy="441" grid="1" gridSize="10" guides="1" tooltips="1" connect="1" arrows="1" fold="1" page="1" pageScale="1" pageWidth="827" pageHeight="1169" math="0" shadow="0">
      <root>
        <mxCell id="0" />
        <mxCell id="1" parent="0" />
        <mxCell id="v3d_JhRxKOI993maeB9w-10" value="&lt;font style=&quot;&quot;&gt;redisObject&lt;/font&gt;" style="swimlane;childLayout=stackLayout;resizeParent=1;resizeParentMax=0;startSize=30;html=1;comic=1;strokeColor=default;fontFamily=Comic Sans MS;fontSize=12;fontColor=default;fillColor=#F8CECC;movable=1;resizable=1;rotatable=1;deletable=1;editable=1;locked=0;connectable=1;container=0;" parent="1" vertex="1">
          <mxGeometry x="120" y="300" width="250" height="70" as="geometry">
            <mxRectangle x="120" y="300" width="150" height="30" as="alternateBounds" />
          </mxGeometry>
        </mxCell>
        <mxCell id="v3d_JhRxKOI993maeB9w-24" value="&lt;font face=&quot;Comic Sans MS&quot;&gt;12315&lt;/font&gt;" style="text;html=1;strokeColor=none;fillColor=none;align=center;verticalAlign=middle;whiteSpace=wrap;rounded=0;fontSize=10;fontFamily=Times New Roman;fontColor=default;movable=1;resizable=1;rotatable=1;deletable=1;editable=1;locked=0;connectable=1;container=0;" parent="1" vertex="1">
          <mxGeometry x="410" y="335" width="40" height="30" as="geometry" />
        </mxCell>
        <mxCell id="v3d_JhRxKOI993maeB9w-26" value="" style="endArrow=classic;html=1;rounded=0;fontFamily=Comic Sans MS;fontSize=12;fontColor=default;startSize=50;exitX=1;exitY=0.5;exitDx=0;exitDy=0;entryX=0;entryY=0.5;entryDx=0;entryDy=0;movable=1;resizable=1;rotatable=1;deletable=1;editable=1;locked=0;connectable=1;" parent="1" source="v3d_JhRxKOI993maeB9w-23" target="v3d_JhRxKOI993maeB9w-24" edge="1">
          <mxGeometry width="50" height="50" relative="1" as="geometry">
            <mxPoint x="388" y="340" as="sourcePoint" />
            <mxPoint x="438" y="290" as="targetPoint" />
          </mxGeometry>
        </mxCell>
        <mxCell id="v3d_JhRxKOI993maeB9w-11" value="&lt;span style=&quot;font-weight: normal;&quot;&gt;type&lt;br&gt;string&lt;br&gt;&lt;/span&gt;" style="swimlane;startSize=50;html=1;comic=1;strokeColor=default;fontFamily=Comic Sans MS;fontSize=12;fontColor=default;fillColor=#F8CECC;movable=1;resizable=1;rotatable=1;deletable=1;editable=1;locked=0;connectable=1;container=0;" parent="1" vertex="1">
          <mxGeometry x="120" y="330" width="70" height="40" as="geometry" />
        </mxCell>
        <mxCell id="v3d_JhRxKOI993maeB9w-12" value="&lt;span style=&quot;font-weight: 400;&quot;&gt;encoding&lt;br&gt;int&lt;br&gt;&lt;/span&gt;" style="swimlane;startSize=50;html=1;comic=1;strokeColor=default;fontFamily=Comic Sans MS;fontSize=12;fontColor=default;fillColor=#F8CECC;movable=1;resizable=1;rotatable=1;deletable=1;editable=1;locked=0;connectable=1;container=0;" parent="1" vertex="1">
          <mxGeometry x="190" y="330" width="70" height="40" as="geometry" />
        </mxCell>
        <mxCell id="v3d_JhRxKOI993maeB9w-13" value="&lt;span style=&quot;font-weight: normal;&quot;&gt;&lt;font style=&quot;font-size: 10px;&quot;&gt;其他&lt;br&gt;元数据&lt;/font&gt;&lt;/span&gt;" style="swimlane;startSize=50;html=1;comic=1;strokeColor=default;fontFamily=Comic Sans MS;fontSize=12;fontColor=default;fillColor=#F8CECC;movable=1;resizable=1;rotatable=1;deletable=1;editable=1;locked=0;connectable=1;container=0;" parent="1" vertex="1">
          <mxGeometry x="260" y="330" width="60" height="40" as="geometry" />
        </mxCell>
        <mxCell id="v3d_JhRxKOI993maeB9w-23" value="&lt;span style=&quot;font-weight: normal;&quot;&gt;ptr&lt;/span&gt;" style="swimlane;startSize=50;html=1;comic=1;strokeColor=default;fontFamily=Comic Sans MS;fontSize=12;fontColor=default;fillColor=#F8CECC;movable=1;resizable=1;rotatable=1;deletable=1;editable=1;locked=0;connectable=1;container=0;" parent="1" vertex="1">
          <mxGeometry x="320" y="330" width="50" height="40" as="geometry" />
        </mxCell>
        <mxCell id="v3d_JhRxKOI993maeB9w-78" value="" style="group" parent="1" vertex="1" connectable="0">
          <mxGeometry x="120" y="400" width="452" height="125" as="geometry" />
        </mxCell>
        <mxCell id="v3d_JhRxKOI993maeB9w-36" value="&lt;font style=&quot;&quot;&gt;redisObject&lt;/font&gt;" style="swimlane;childLayout=stackLayout;resizeParent=1;resizeParentMax=0;startSize=30;html=1;comic=1;strokeColor=default;fontFamily=Comic Sans MS;fontSize=12;fontColor=default;fillColor=#F8CECC;movable=1;resizable=1;rotatable=1;deletable=1;editable=1;locked=0;connectable=1;" parent="v3d_JhRxKOI993maeB9w-78" vertex="1">
          <mxGeometry width="250" height="70" as="geometry">
            <mxRectangle x="120" y="300" width="150" height="30" as="alternateBounds" />
          </mxGeometry>
        </mxCell>
        <mxCell id="v3d_JhRxKOI993maeB9w-37" value="&lt;span style=&quot;font-weight: normal;&quot;&gt;type&lt;br&gt;string&lt;br&gt;&lt;/span&gt;" style="swimlane;startSize=50;html=1;comic=1;strokeColor=default;fontFamily=Comic Sans MS;fontSize=12;fontColor=default;fillColor=#F8CECC;movable=1;resizable=1;rotatable=1;deletable=1;editable=1;locked=0;connectable=1;" parent="v3d_JhRxKOI993maeB9w-36" vertex="1">
          <mxGeometry y="30" width="70" height="40" as="geometry" />
        </mxCell>
        <mxCell id="v3d_JhRxKOI993maeB9w-38" value="&lt;span style=&quot;font-weight: normal;&quot;&gt;encoding&lt;br&gt;embstr&lt;/span&gt;" style="swimlane;startSize=50;html=1;comic=1;strokeColor=default;fontFamily=Comic Sans MS;fontSize=12;fontColor=default;fillColor=#F8CECC;movable=1;resizable=1;rotatable=1;deletable=1;editable=1;locked=0;connectable=1;" parent="v3d_JhRxKOI993maeB9w-36" vertex="1">
          <mxGeometry x="70" y="30" width="70" height="40" as="geometry" />
        </mxCell>
        <mxCell id="v3d_JhRxKOI993maeB9w-39" value="&lt;span style=&quot;font-weight: normal;&quot;&gt;&lt;font style=&quot;font-size: 10px;&quot;&gt;其他&lt;br&gt;元数据&lt;/font&gt;&lt;/span&gt;" style="swimlane;startSize=50;html=1;comic=1;strokeColor=default;fontFamily=Comic Sans MS;fontSize=12;fontColor=default;fillColor=#F8CECC;movable=1;resizable=1;rotatable=1;deletable=1;editable=1;locked=0;connectable=1;" parent="v3d_JhRxKOI993maeB9w-36" vertex="1">
          <mxGeometry x="140" y="30" width="60" height="40" as="geometry" />
        </mxCell>
        <mxCell id="v3d_JhRxKOI993maeB9w-40" value="&lt;span style=&quot;font-weight: normal;&quot;&gt;ptr&lt;/span&gt;" style="swimlane;startSize=50;html=1;comic=1;strokeColor=default;fontFamily=Comic Sans MS;fontSize=12;fontColor=default;fillColor=#F8CECC;movable=1;resizable=1;rotatable=1;deletable=1;editable=1;locked=0;connectable=1;" parent="v3d_JhRxKOI993maeB9w-36" vertex="1">
          <mxGeometry x="200" y="30" width="50" height="40" as="geometry" />
        </mxCell>
        <mxCell id="v3d_JhRxKOI993maeB9w-57" value="" style="group" parent="v3d_JhRxKOI993maeB9w-78" vertex="1" connectable="0">
          <mxGeometry x="290" y="100" width="162" height="25" as="geometry" />
        </mxCell>
        <mxCell id="v3d_JhRxKOI993maeB9w-50" value="H" style="rounded=0;whiteSpace=wrap;html=1;comic=1;strokeColor=default;fontFamily=Comic Sans MS;fontSize=12;fontColor=default;startSize=50;fillColor=#D4E1F5;" parent="v3d_JhRxKOI993maeB9w-57" vertex="1">
          <mxGeometry width="27" height="25" as="geometry" />
        </mxCell>
        <mxCell id="v3d_JhRxKOI993maeB9w-51" value="e" style="rounded=0;whiteSpace=wrap;html=1;comic=1;strokeColor=default;fontFamily=Comic Sans MS;fontSize=12;fontColor=default;startSize=50;fillColor=#D4E1F5;" parent="v3d_JhRxKOI993maeB9w-57" vertex="1">
          <mxGeometry x="27" width="27" height="25" as="geometry" />
        </mxCell>
        <mxCell id="v3d_JhRxKOI993maeB9w-52" value="l" style="rounded=0;whiteSpace=wrap;html=1;comic=1;strokeColor=default;fontFamily=Comic Sans MS;fontSize=12;fontColor=default;startSize=50;fillColor=#D4E1F5;" parent="v3d_JhRxKOI993maeB9w-57" vertex="1">
          <mxGeometry x="54" width="27" height="25" as="geometry" />
        </mxCell>
        <mxCell id="v3d_JhRxKOI993maeB9w-53" value="l" style="rounded=0;whiteSpace=wrap;html=1;comic=1;strokeColor=default;fontFamily=Comic Sans MS;fontSize=12;fontColor=default;startSize=50;fillColor=#D4E1F5;" parent="v3d_JhRxKOI993maeB9w-57" vertex="1">
          <mxGeometry x="81" width="27" height="25" as="geometry" />
        </mxCell>
        <mxCell id="v3d_JhRxKOI993maeB9w-54" value="o" style="rounded=0;whiteSpace=wrap;html=1;comic=1;strokeColor=default;fontFamily=Comic Sans MS;fontSize=12;fontColor=default;startSize=50;fillColor=#D4E1F5;" parent="v3d_JhRxKOI993maeB9w-57" vertex="1">
          <mxGeometry x="108" width="27" height="25" as="geometry" />
        </mxCell>
        <mxCell id="v3d_JhRxKOI993maeB9w-55" value="\0" style="rounded=0;whiteSpace=wrap;html=1;comic=1;strokeColor=default;fontFamily=Comic Sans MS;fontSize=12;fontColor=default;startSize=50;fillColor=#D4E1F5;" parent="v3d_JhRxKOI993maeB9w-57" vertex="1">
          <mxGeometry x="135" width="27" height="25" as="geometry" />
        </mxCell>
        <mxCell id="v3d_JhRxKOI993maeB9w-77" value="" style="group" parent="v3d_JhRxKOI993maeB9w-78" vertex="1" connectable="0">
          <mxGeometry x="250" width="150" height="70" as="geometry" />
        </mxCell>
        <mxCell id="v3d_JhRxKOI993maeB9w-44" value="&lt;font style=&quot;&quot;&gt;SDS&lt;/font&gt;" style="swimlane;childLayout=stackLayout;resizeParent=1;resizeParentMax=0;startSize=30;html=1;comic=1;strokeColor=default;fontFamily=Comic Sans MS;fontSize=12;fontColor=default;fillColor=#D5E8D4;movable=1;resizable=1;rotatable=1;deletable=1;editable=1;locked=0;connectable=1;container=0;" parent="v3d_JhRxKOI993maeB9w-77" vertex="1">
          <mxGeometry width="150" height="70" as="geometry">
            <mxRectangle x="120" y="300" width="150" height="30" as="alternateBounds" />
          </mxGeometry>
        </mxCell>
        <mxCell id="v3d_JhRxKOI993maeB9w-45" value="&lt;span style=&quot;font-weight: normal;&quot;&gt;free&lt;br&gt;0&lt;br&gt;&lt;/span&gt;" style="swimlane;startSize=50;html=1;comic=1;strokeColor=default;fontFamily=Comic Sans MS;fontSize=12;fontColor=default;fillColor=#D5E8D4;movable=1;resizable=1;rotatable=1;deletable=1;editable=1;locked=0;connectable=1;container=0;" parent="v3d_JhRxKOI993maeB9w-77" vertex="1">
          <mxGeometry y="30" width="50" height="40" as="geometry" />
        </mxCell>
        <mxCell id="v3d_JhRxKOI993maeB9w-46" value="&lt;span style=&quot;font-weight: 400;&quot;&gt;len&lt;br&gt;5&lt;br&gt;&lt;/span&gt;" style="swimlane;startSize=50;html=1;comic=1;strokeColor=default;fontFamily=Comic Sans MS;fontSize=12;fontColor=default;fillColor=#D5E8D4;movable=1;resizable=1;rotatable=1;deletable=1;editable=1;locked=0;connectable=1;container=0;" parent="v3d_JhRxKOI993maeB9w-77" vertex="1">
          <mxGeometry x="50" y="30" width="50" height="40" as="geometry" />
        </mxCell>
        <mxCell id="v3d_JhRxKOI993maeB9w-47" value="&lt;span style=&quot;font-size: 10px; font-weight: 400;&quot;&gt;buf&lt;/span&gt;" style="swimlane;startSize=50;html=1;comic=1;strokeColor=default;fontFamily=Comic Sans MS;fontSize=12;fontColor=default;fillColor=#D5E8D4;movable=1;resizable=1;rotatable=1;deletable=1;editable=1;locked=0;connectable=1;container=0;" parent="v3d_JhRxKOI993maeB9w-77" vertex="1">
          <mxGeometry x="100" y="30" width="50" height="40" as="geometry" />
        </mxCell>
        <mxCell id="v3d_JhRxKOI993maeB9w-58" style="edgeStyle=elbowEdgeStyle;rounded=0;orthogonalLoop=1;jettySize=auto;html=1;exitX=0.5;exitY=1;exitDx=0;exitDy=0;strokeColor=default;fontFamily=Comic Sans MS;fontSize=12;fontColor=default;startSize=50;entryX=0.5;entryY=0;entryDx=0;entryDy=0;elbow=vertical;" parent="v3d_JhRxKOI993maeB9w-78" source="v3d_JhRxKOI993maeB9w-47" target="v3d_JhRxKOI993maeB9w-50" edge="1">
          <mxGeometry relative="1" as="geometry">
            <mxPoint x="310" y="90" as="targetPoint" />
          </mxGeometry>
        </mxCell>
        <mxCell id="IQC8q7tDYYNDIFrGt10--20" value="" style="group" vertex="1" connectable="0" parent="1">
          <mxGeometry x="119" y="550" width="452" height="125" as="geometry" />
        </mxCell>
        <mxCell id="v3d_JhRxKOI993maeB9w-59" value="&lt;font style=&quot;&quot;&gt;redisObject&lt;/font&gt;" style="swimlane;childLayout=stackLayout;resizeParent=1;resizeParentMax=0;startSize=30;html=1;comic=1;strokeColor=default;fontFamily=Comic Sans MS;fontSize=12;fontColor=default;fillColor=#F8CECC;movable=1;resizable=1;rotatable=1;deletable=1;editable=1;locked=0;connectable=1;" parent="IQC8q7tDYYNDIFrGt10--20" vertex="1">
          <mxGeometry width="250" height="70" as="geometry">
            <mxRectangle x="120" y="300" width="150" height="30" as="alternateBounds" />
          </mxGeometry>
        </mxCell>
        <mxCell id="v3d_JhRxKOI993maeB9w-60" value="&lt;span style=&quot;font-weight: normal;&quot;&gt;type&lt;br&gt;string&lt;br&gt;&lt;/span&gt;" style="swimlane;startSize=50;html=1;comic=1;strokeColor=default;fontFamily=Comic Sans MS;fontSize=12;fontColor=default;fillColor=#F8CECC;movable=1;resizable=1;rotatable=1;deletable=1;editable=1;locked=0;connectable=1;" parent="v3d_JhRxKOI993maeB9w-59" vertex="1">
          <mxGeometry y="30" width="70" height="40" as="geometry" />
        </mxCell>
        <mxCell id="v3d_JhRxKOI993maeB9w-61" value="&lt;span style=&quot;font-weight: 400;&quot;&gt;encoding&lt;br&gt;raw&lt;br&gt;&lt;/span&gt;" style="swimlane;startSize=50;html=1;comic=1;strokeColor=default;fontFamily=Comic Sans MS;fontSize=12;fontColor=default;fillColor=#F8CECC;movable=1;resizable=1;rotatable=1;deletable=1;editable=1;locked=0;connectable=1;" parent="v3d_JhRxKOI993maeB9w-59" vertex="1">
          <mxGeometry x="70" y="30" width="70" height="40" as="geometry" />
        </mxCell>
        <mxCell id="v3d_JhRxKOI993maeB9w-62" value="&lt;span style=&quot;font-weight: normal;&quot;&gt;&lt;font style=&quot;font-size: 10px;&quot;&gt;其他&lt;br&gt;元数据&lt;/font&gt;&lt;/span&gt;" style="swimlane;startSize=50;html=1;comic=1;strokeColor=default;fontFamily=Comic Sans MS;fontSize=12;fontColor=default;fillColor=#F8CECC;movable=1;resizable=1;rotatable=1;deletable=1;editable=1;locked=0;connectable=1;" parent="v3d_JhRxKOI993maeB9w-59" vertex="1">
          <mxGeometry x="140" y="30" width="60" height="40" as="geometry" />
        </mxCell>
        <mxCell id="v3d_JhRxKOI993maeB9w-63" value="&lt;span style=&quot;font-weight: normal;&quot;&gt;ptr&lt;/span&gt;" style="swimlane;startSize=50;html=1;comic=1;strokeColor=default;fontFamily=Comic Sans MS;fontSize=12;fontColor=default;fillColor=#F8CECC;movable=1;resizable=1;rotatable=1;deletable=1;editable=1;locked=0;connectable=1;" parent="v3d_JhRxKOI993maeB9w-59" vertex="1">
          <mxGeometry x="200" y="30" width="50" height="40" as="geometry" />
        </mxCell>
        <mxCell id="v3d_JhRxKOI993maeB9w-64" value="" style="endArrow=classic;html=1;rounded=0;fontFamily=Comic Sans MS;fontSize=12;fontColor=default;startSize=50;exitX=1;exitY=0.5;exitDx=0;exitDy=0;entryX=0;entryY=0.25;entryDx=0;entryDy=0;movable=1;resizable=1;rotatable=1;deletable=1;editable=1;locked=0;connectable=1;strokeColor=default;edgeStyle=elbowEdgeStyle;" parent="IQC8q7tDYYNDIFrGt10--20" source="v3d_JhRxKOI993maeB9w-63" target="v3d_JhRxKOI993maeB9w-66" edge="1">
          <mxGeometry width="50" height="50" relative="1" as="geometry">
            <mxPoint x="268" y="40" as="sourcePoint" />
            <mxPoint x="290" y="49.999999999999886" as="targetPoint" />
          </mxGeometry>
        </mxCell>
        <mxCell id="v3d_JhRxKOI993maeB9w-66" value="&lt;font style=&quot;&quot;&gt;SDS&lt;/font&gt;" style="swimlane;childLayout=stackLayout;resizeParent=1;resizeParentMax=0;startSize=30;html=1;comic=1;strokeColor=default;fontFamily=Comic Sans MS;fontSize=12;fontColor=default;fillColor=#D5E8D4;movable=1;resizable=1;rotatable=1;deletable=1;editable=1;locked=0;connectable=1;container=0;" parent="IQC8q7tDYYNDIFrGt10--20" vertex="1">
          <mxGeometry x="293" width="150" height="70" as="geometry">
            <mxRectangle x="120" y="300" width="150" height="30" as="alternateBounds" />
          </mxGeometry>
        </mxCell>
        <mxCell id="v3d_JhRxKOI993maeB9w-67" value="&lt;span style=&quot;font-weight: normal;&quot;&gt;free&lt;br&gt;0&lt;br&gt;&lt;/span&gt;" style="swimlane;startSize=50;html=1;comic=1;strokeColor=default;fontFamily=Comic Sans MS;fontSize=12;fontColor=default;fillColor=#D5E8D4;movable=1;resizable=1;rotatable=1;deletable=1;editable=1;locked=0;connectable=1;container=0;" parent="IQC8q7tDYYNDIFrGt10--20" vertex="1">
          <mxGeometry x="293" y="30" width="50" height="40" as="geometry" />
        </mxCell>
        <mxCell id="v3d_JhRxKOI993maeB9w-68" value="&lt;span style=&quot;font-weight: 400;&quot;&gt;len&lt;br&gt;5&lt;br&gt;&lt;/span&gt;" style="swimlane;startSize=50;html=1;comic=1;strokeColor=default;fontFamily=Comic Sans MS;fontSize=12;fontColor=default;fillColor=#D5E8D4;movable=1;resizable=1;rotatable=1;deletable=1;editable=1;locked=0;connectable=1;container=0;" parent="IQC8q7tDYYNDIFrGt10--20" vertex="1">
          <mxGeometry x="343" y="30" width="50" height="40" as="geometry" />
        </mxCell>
        <mxCell id="v3d_JhRxKOI993maeB9w-69" value="&lt;span style=&quot;font-size: 10px; font-weight: 400;&quot;&gt;buf&lt;/span&gt;" style="swimlane;startSize=50;html=1;comic=1;strokeColor=default;fontFamily=Comic Sans MS;fontSize=12;fontColor=default;fillColor=#D5E8D4;movable=1;resizable=1;rotatable=1;deletable=1;editable=1;locked=0;connectable=1;container=0;" parent="IQC8q7tDYYNDIFrGt10--20" vertex="1">
          <mxGeometry x="393" y="30" width="50" height="40" as="geometry" />
        </mxCell>
        <mxCell id="v3d_JhRxKOI993maeB9w-70" value="" style="group" parent="IQC8q7tDYYNDIFrGt10--20" vertex="1" connectable="0">
          <mxGeometry x="290" y="100" width="162" height="25" as="geometry" />
        </mxCell>
        <mxCell id="v3d_JhRxKOI993maeB9w-71" value="H" style="rounded=0;whiteSpace=wrap;html=1;comic=1;strokeColor=default;fontFamily=Comic Sans MS;fontSize=12;fontColor=default;startSize=50;fillColor=#D4E1F5;" parent="v3d_JhRxKOI993maeB9w-70" vertex="1">
          <mxGeometry width="27" height="25" as="geometry" />
        </mxCell>
        <mxCell id="v3d_JhRxKOI993maeB9w-72" value="e" style="rounded=0;whiteSpace=wrap;html=1;comic=1;strokeColor=default;fontFamily=Comic Sans MS;fontSize=12;fontColor=default;startSize=50;fillColor=#D4E1F5;" parent="v3d_JhRxKOI993maeB9w-70" vertex="1">
          <mxGeometry x="27" width="27" height="25" as="geometry" />
        </mxCell>
        <mxCell id="v3d_JhRxKOI993maeB9w-73" value="l" style="rounded=0;whiteSpace=wrap;html=1;comic=1;strokeColor=default;fontFamily=Comic Sans MS;fontSize=12;fontColor=default;startSize=50;fillColor=#D4E1F5;" parent="v3d_JhRxKOI993maeB9w-70" vertex="1">
          <mxGeometry x="54" width="27" height="25" as="geometry" />
        </mxCell>
        <mxCell id="v3d_JhRxKOI993maeB9w-74" value="l" style="rounded=0;whiteSpace=wrap;html=1;comic=1;strokeColor=default;fontFamily=Comic Sans MS;fontSize=12;fontColor=default;startSize=50;fillColor=#D4E1F5;" parent="v3d_JhRxKOI993maeB9w-70" vertex="1">
          <mxGeometry x="81" width="27" height="25" as="geometry" />
        </mxCell>
        <mxCell id="v3d_JhRxKOI993maeB9w-75" value="o" style="rounded=0;whiteSpace=wrap;html=1;comic=1;strokeColor=default;fontFamily=Comic Sans MS;fontSize=12;fontColor=default;startSize=50;fillColor=#D4E1F5;" parent="v3d_JhRxKOI993maeB9w-70" vertex="1">
          <mxGeometry x="108" width="27" height="25" as="geometry" />
        </mxCell>
        <mxCell id="v3d_JhRxKOI993maeB9w-76" value="\0" style="rounded=0;whiteSpace=wrap;html=1;comic=1;strokeColor=default;fontFamily=Comic Sans MS;fontSize=12;fontColor=default;startSize=50;fillColor=#D4E1F5;" parent="v3d_JhRxKOI993maeB9w-70" vertex="1">
          <mxGeometry x="135" width="27" height="25" as="geometry" />
        </mxCell>
        <mxCell id="v3d_JhRxKOI993maeB9w-65" style="edgeStyle=elbowEdgeStyle;rounded=0;orthogonalLoop=1;jettySize=auto;html=1;exitX=0.5;exitY=1;exitDx=0;exitDy=0;strokeColor=default;fontFamily=Comic Sans MS;fontSize=12;fontColor=default;startSize=50;entryX=0.5;entryY=0;entryDx=0;entryDy=0;elbow=vertical;" parent="IQC8q7tDYYNDIFrGt10--20" source="v3d_JhRxKOI993maeB9w-69" target="v3d_JhRxKOI993maeB9w-71" edge="1">
          <mxGeometry relative="1" as="geometry">
            <mxPoint x="310" y="90" as="targetPoint" />
          </mxGeometry>
        </mxCell>
        <mxCell id="IQC8q7tDYYNDIFrGt10--98" style="edgeStyle=orthogonalEdgeStyle;rounded=0;orthogonalLoop=1;jettySize=auto;html=1;exitX=1;exitY=0.75;exitDx=0;exitDy=0;entryX=0;entryY=0.5;entryDx=0;entryDy=0;" edge="1" parent="1" source="IQC8q7tDYYNDIFrGt10--58" target="IQC8q7tDYYNDIFrGt10--74">
          <mxGeometry relative="1" as="geometry">
            <Array as="points">
              <mxPoint x="350" y="883" />
              <mxPoint x="350" y="863" />
            </Array>
          </mxGeometry>
        </mxCell>
        <mxCell id="IQC8q7tDYYNDIFrGt10--58" value="&lt;font style=&quot;&quot;&gt;redisObject&lt;/font&gt;" style="swimlane;childLayout=stackLayout;resizeParent=1;resizeParentMax=0;startSize=30;html=1;comic=1;strokeColor=default;fontFamily=Comic Sans MS;fontSize=12;fontColor=default;fillColor=#F8CECC;movable=1;resizable=1;rotatable=1;deletable=1;editable=1;locked=0;connectable=1;" vertex="1" parent="1">
          <mxGeometry x="120" y="830" width="220" height="70" as="geometry">
            <mxRectangle x="120" y="300" width="150" height="30" as="alternateBounds" />
          </mxGeometry>
        </mxCell>
        <mxCell id="IQC8q7tDYYNDIFrGt10--59" value="&lt;span style=&quot;font-weight: normal;&quot;&gt;type&lt;br&gt;list&lt;br&gt;&lt;/span&gt;" style="swimlane;startSize=50;html=1;comic=1;strokeColor=default;fontFamily=Comic Sans MS;fontSize=12;fontColor=default;fillColor=#F8CECC;movable=1;resizable=1;rotatable=1;deletable=1;editable=1;locked=0;connectable=1;" vertex="1" parent="IQC8q7tDYYNDIFrGt10--58">
          <mxGeometry y="30" width="40" height="40" as="geometry" />
        </mxCell>
        <mxCell id="IQC8q7tDYYNDIFrGt10--60" value="&lt;span style=&quot;font-weight: 400;&quot;&gt;encoding&lt;br&gt;linkedlist&lt;br&gt;&lt;/span&gt;" style="swimlane;startSize=50;html=1;comic=1;strokeColor=default;fontFamily=Comic Sans MS;fontSize=12;fontColor=default;fillColor=#F8CECC;movable=1;resizable=1;rotatable=1;deletable=1;editable=1;locked=0;connectable=1;" vertex="1" parent="IQC8q7tDYYNDIFrGt10--58">
          <mxGeometry x="40" y="30" width="70" height="40" as="geometry" />
        </mxCell>
        <mxCell id="IQC8q7tDYYNDIFrGt10--61" value="&lt;span style=&quot;font-weight: normal;&quot;&gt;&lt;font style=&quot;font-size: 10px;&quot;&gt;其他&lt;br&gt;元数据&lt;/font&gt;&lt;/span&gt;" style="swimlane;startSize=50;html=1;comic=1;strokeColor=default;fontFamily=Comic Sans MS;fontSize=12;fontColor=default;fillColor=#F8CECC;movable=1;resizable=1;rotatable=1;deletable=1;editable=1;locked=0;connectable=1;" vertex="1" parent="IQC8q7tDYYNDIFrGt10--58">
          <mxGeometry x="110" y="30" width="60" height="40" as="geometry" />
        </mxCell>
        <mxCell id="IQC8q7tDYYNDIFrGt10--62" value="&lt;span style=&quot;font-weight: normal;&quot;&gt;ptr&lt;/span&gt;" style="swimlane;startSize=50;html=1;comic=1;strokeColor=default;fontFamily=Comic Sans MS;fontSize=12;fontColor=default;fillColor=#F8CECC;movable=1;resizable=1;rotatable=1;deletable=1;editable=1;locked=0;connectable=1;" vertex="1" parent="IQC8q7tDYYNDIFrGt10--58">
          <mxGeometry x="170" y="30" width="50" height="40" as="geometry" />
        </mxCell>
        <mxCell id="IQC8q7tDYYNDIFrGt10--100" value="" style="group" vertex="1" connectable="0" parent="1">
          <mxGeometry x="361" y="830" width="298" height="70" as="geometry" />
        </mxCell>
        <mxCell id="IQC8q7tDYYNDIFrGt10--96" value="" style="swimlane;startSize=0;dashed=1;dashPattern=8 8;" vertex="1" parent="IQC8q7tDYYNDIFrGt10--100">
          <mxGeometry width="298" height="70" as="geometry">
            <mxRectangle width="50" height="40" as="alternateBounds" />
          </mxGeometry>
        </mxCell>
        <mxCell id="IQC8q7tDYYNDIFrGt10--97" value="链表" style="text;html=1;strokeColor=none;fillColor=none;align=center;verticalAlign=middle;whiteSpace=wrap;rounded=0;fontFamily=Comic Sans MS;" vertex="1" parent="IQC8q7tDYYNDIFrGt10--96">
          <mxGeometry x="119" width="60" height="20" as="geometry" />
        </mxCell>
        <mxCell id="IQC8q7tDYYNDIFrGt10--99" value="" style="group" vertex="1" connectable="0" parent="IQC8q7tDYYNDIFrGt10--100">
          <mxGeometry x="9" y="23" width="280" height="40" as="geometry" />
        </mxCell>
        <mxCell id="IQC8q7tDYYNDIFrGt10--76" value="" style="group" vertex="1" connectable="0" parent="IQC8q7tDYYNDIFrGt10--99">
          <mxGeometry width="80" height="40" as="geometry" />
        </mxCell>
        <mxCell id="IQC8q7tDYYNDIFrGt10--67" value="" style="rounded=0;whiteSpace=wrap;html=1;comic=1;strokeColor=default;fontFamily=Comic Sans MS;fontSize=12;fontColor=default;startSize=50;fillColor=#d5e8d4;verticalAlign=top;" vertex="1" parent="IQC8q7tDYYNDIFrGt10--76">
          <mxGeometry width="80" height="40" as="geometry" />
        </mxCell>
        <mxCell id="IQC8q7tDYYNDIFrGt10--74" value="stringObject" style="rounded=0;whiteSpace=wrap;html=1;comic=1;strokeColor=default;fontFamily=Comic Sans MS;fontSize=12;fontColor=default;startSize=50;fillColor=#d5e8d4;verticalAlign=middle;" vertex="1" parent="IQC8q7tDYYNDIFrGt10--76">
          <mxGeometry width="80" height="20" as="geometry" />
        </mxCell>
        <mxCell id="IQC8q7tDYYNDIFrGt10--75" value="1" style="text;html=1;strokeColor=none;fillColor=none;align=center;verticalAlign=middle;whiteSpace=wrap;rounded=0;comic=1;fontFamily=Comic Sans MS;" vertex="1" parent="IQC8q7tDYYNDIFrGt10--76">
          <mxGeometry y="20" width="80" height="20" as="geometry" />
        </mxCell>
        <mxCell id="IQC8q7tDYYNDIFrGt10--81" value="" style="group" vertex="1" connectable="0" parent="IQC8q7tDYYNDIFrGt10--99">
          <mxGeometry x="100" width="80" height="40" as="geometry" />
        </mxCell>
        <mxCell id="IQC8q7tDYYNDIFrGt10--82" value="" style="rounded=0;whiteSpace=wrap;html=1;comic=1;strokeColor=default;fontFamily=Comic Sans MS;fontSize=12;fontColor=default;startSize=50;fillColor=#d5e8d4;verticalAlign=top;" vertex="1" parent="IQC8q7tDYYNDIFrGt10--81">
          <mxGeometry width="80" height="40" as="geometry" />
        </mxCell>
        <mxCell id="IQC8q7tDYYNDIFrGt10--83" value="stringObject" style="rounded=0;whiteSpace=wrap;html=1;comic=1;strokeColor=default;fontFamily=Comic Sans MS;fontSize=12;fontColor=default;startSize=50;fillColor=#d5e8d4;verticalAlign=middle;" vertex="1" parent="IQC8q7tDYYNDIFrGt10--81">
          <mxGeometry width="80" height="20" as="geometry" />
        </mxCell>
        <mxCell id="IQC8q7tDYYNDIFrGt10--84" value="&quot;three&quot;" style="text;html=1;strokeColor=none;fillColor=none;align=center;verticalAlign=middle;whiteSpace=wrap;rounded=0;comic=1;fontFamily=Comic Sans MS;" vertex="1" parent="IQC8q7tDYYNDIFrGt10--81">
          <mxGeometry y="20" width="80" height="20" as="geometry" />
        </mxCell>
        <mxCell id="IQC8q7tDYYNDIFrGt10--85" value="" style="group" vertex="1" connectable="0" parent="IQC8q7tDYYNDIFrGt10--99">
          <mxGeometry x="200" width="80" height="40" as="geometry" />
        </mxCell>
        <mxCell id="IQC8q7tDYYNDIFrGt10--86" value="" style="rounded=0;whiteSpace=wrap;html=1;comic=1;strokeColor=default;fontFamily=Comic Sans MS;fontSize=12;fontColor=default;startSize=50;fillColor=#d5e8d4;verticalAlign=top;" vertex="1" parent="IQC8q7tDYYNDIFrGt10--85">
          <mxGeometry width="80" height="40" as="geometry" />
        </mxCell>
        <mxCell id="IQC8q7tDYYNDIFrGt10--87" value="stringObject" style="rounded=0;whiteSpace=wrap;html=1;comic=1;strokeColor=default;fontFamily=Comic Sans MS;fontSize=12;fontColor=default;startSize=50;fillColor=#d5e8d4;verticalAlign=middle;" vertex="1" parent="IQC8q7tDYYNDIFrGt10--85">
          <mxGeometry width="80" height="20" as="geometry" />
        </mxCell>
        <mxCell id="IQC8q7tDYYNDIFrGt10--88" value="5" style="text;html=1;strokeColor=none;fillColor=none;align=center;verticalAlign=middle;whiteSpace=wrap;rounded=0;comic=1;fontFamily=Comic Sans MS;" vertex="1" parent="IQC8q7tDYYNDIFrGt10--85">
          <mxGeometry y="20" width="80" height="20" as="geometry" />
        </mxCell>
        <mxCell id="IQC8q7tDYYNDIFrGt10--94" style="edgeStyle=orthogonalEdgeStyle;rounded=0;orthogonalLoop=1;jettySize=auto;html=1;exitX=1;exitY=0.5;exitDx=0;exitDy=0;entryX=0;entryY=0.5;entryDx=0;entryDy=0;" edge="1" parent="IQC8q7tDYYNDIFrGt10--99" source="IQC8q7tDYYNDIFrGt10--74" target="IQC8q7tDYYNDIFrGt10--83">
          <mxGeometry relative="1" as="geometry" />
        </mxCell>
        <mxCell id="IQC8q7tDYYNDIFrGt10--95" style="edgeStyle=orthogonalEdgeStyle;rounded=0;orthogonalLoop=1;jettySize=auto;html=1;exitX=1;exitY=0.5;exitDx=0;exitDy=0;entryX=0;entryY=0.5;entryDx=0;entryDy=0;" edge="1" parent="IQC8q7tDYYNDIFrGt10--99" source="IQC8q7tDYYNDIFrGt10--83" target="IQC8q7tDYYNDIFrGt10--87">
          <mxGeometry relative="1" as="geometry" />
        </mxCell>
        <mxCell id="IQC8q7tDYYNDIFrGt10--22" value="&lt;font style=&quot;&quot;&gt;redisObject&lt;/font&gt;" style="swimlane;childLayout=stackLayout;resizeParent=1;resizeParentMax=0;startSize=30;html=1;comic=1;strokeColor=default;fontFamily=Comic Sans MS;fontSize=12;fontColor=default;fillColor=#F8CECC;movable=1;resizable=1;rotatable=1;deletable=1;editable=1;locked=0;connectable=1;" vertex="1" parent="1">
          <mxGeometry x="120" y="720" width="220" height="70" as="geometry">
            <mxRectangle x="120" y="300" width="150" height="30" as="alternateBounds" />
          </mxGeometry>
        </mxCell>
        <mxCell id="IQC8q7tDYYNDIFrGt10--23" value="&lt;span style=&quot;font-weight: normal;&quot;&gt;type&lt;br&gt;list&lt;br&gt;&lt;/span&gt;" style="swimlane;startSize=50;html=1;comic=1;strokeColor=default;fontFamily=Comic Sans MS;fontSize=12;fontColor=default;fillColor=#F8CECC;movable=1;resizable=1;rotatable=1;deletable=1;editable=1;locked=0;connectable=1;" vertex="1" parent="IQC8q7tDYYNDIFrGt10--22">
          <mxGeometry y="30" width="40" height="40" as="geometry" />
        </mxCell>
        <mxCell id="IQC8q7tDYYNDIFrGt10--24" value="&lt;span style=&quot;font-weight: 400;&quot;&gt;encoding&lt;br&gt;ziplist&lt;br&gt;&lt;/span&gt;" style="swimlane;startSize=50;html=1;comic=1;strokeColor=default;fontFamily=Comic Sans MS;fontSize=12;fontColor=default;fillColor=#F8CECC;movable=1;resizable=1;rotatable=1;deletable=1;editable=1;locked=0;connectable=1;" vertex="1" parent="IQC8q7tDYYNDIFrGt10--22">
          <mxGeometry x="40" y="30" width="70" height="40" as="geometry" />
        </mxCell>
        <mxCell id="IQC8q7tDYYNDIFrGt10--25" value="&lt;span style=&quot;font-weight: normal;&quot;&gt;&lt;font style=&quot;font-size: 10px;&quot;&gt;其他&lt;br&gt;元数据&lt;/font&gt;&lt;/span&gt;" style="swimlane;startSize=50;html=1;comic=1;strokeColor=default;fontFamily=Comic Sans MS;fontSize=12;fontColor=default;fillColor=#F8CECC;movable=1;resizable=1;rotatable=1;deletable=1;editable=1;locked=0;connectable=1;" vertex="1" parent="IQC8q7tDYYNDIFrGt10--22">
          <mxGeometry x="110" y="30" width="60" height="40" as="geometry" />
        </mxCell>
        <mxCell id="IQC8q7tDYYNDIFrGt10--26" value="&lt;span style=&quot;font-weight: normal;&quot;&gt;ptr&lt;/span&gt;" style="swimlane;startSize=50;html=1;comic=1;strokeColor=default;fontFamily=Comic Sans MS;fontSize=12;fontColor=default;fillColor=#F8CECC;movable=1;resizable=1;rotatable=1;deletable=1;editable=1;locked=0;connectable=1;" vertex="1" parent="IQC8q7tDYYNDIFrGt10--22">
          <mxGeometry x="170" y="30" width="50" height="40" as="geometry" />
        </mxCell>
        <mxCell id="IQC8q7tDYYNDIFrGt10--27" value="" style="endArrow=classic;html=1;rounded=0;fontFamily=Comic Sans MS;fontSize=12;fontColor=default;startSize=50;exitX=1;exitY=0.5;exitDx=0;exitDy=0;movable=1;resizable=1;rotatable=1;deletable=1;editable=1;locked=0;connectable=1;strokeColor=default;edgeStyle=elbowEdgeStyle;entryX=0;entryY=0.5;entryDx=0;entryDy=0;" edge="1" parent="1" source="IQC8q7tDYYNDIFrGt10--26" target="IQC8q7tDYYNDIFrGt10--41">
          <mxGeometry width="50" height="50" relative="1" as="geometry">
            <mxPoint x="388" y="760" as="sourcePoint" />
            <mxPoint x="400" y="720" as="targetPoint" />
          </mxGeometry>
        </mxCell>
        <mxCell id="IQC8q7tDYYNDIFrGt10--55" value="" style="group" vertex="1" connectable="0" parent="1">
          <mxGeometry x="381" y="757.5" width="260" height="25" as="geometry" />
        </mxCell>
        <mxCell id="IQC8q7tDYYNDIFrGt10--43" value="1" style="rounded=0;whiteSpace=wrap;html=1;comic=1;strokeColor=default;fontFamily=Comic Sans MS;fontSize=12;fontColor=default;startSize=50;fillColor=#d5e8d4;" vertex="1" parent="IQC8q7tDYYNDIFrGt10--55">
          <mxGeometry x="130" width="20" height="25" as="geometry" />
        </mxCell>
        <mxCell id="IQC8q7tDYYNDIFrGt10--42" value="zltail" style="rounded=0;whiteSpace=wrap;html=1;comic=1;strokeColor=default;fontFamily=Comic Sans MS;fontSize=12;fontColor=default;startSize=50;fillColor=#d5e8d4;" vertex="1" parent="IQC8q7tDYYNDIFrGt10--55">
          <mxGeometry x="50" width="40" height="25" as="geometry" />
        </mxCell>
        <mxCell id="IQC8q7tDYYNDIFrGt10--41" value="zlbytes" style="rounded=0;whiteSpace=wrap;html=1;comic=1;strokeColor=default;fontFamily=Comic Sans MS;fontSize=12;fontColor=default;startSize=50;fillColor=#d5e8d4;" vertex="1" parent="IQC8q7tDYYNDIFrGt10--55">
          <mxGeometry width="50" height="25" as="geometry" />
        </mxCell>
        <mxCell id="IQC8q7tDYYNDIFrGt10--47" value="zllen" style="rounded=0;whiteSpace=wrap;html=1;comic=1;strokeColor=default;fontFamily=Comic Sans MS;fontSize=12;fontColor=default;startSize=50;fillColor=#d5e8d4;" vertex="1" parent="IQC8q7tDYYNDIFrGt10--55">
          <mxGeometry x="90" width="40" height="25" as="geometry" />
        </mxCell>
        <mxCell id="IQC8q7tDYYNDIFrGt10--48" value="&quot;three&quot;" style="rounded=0;whiteSpace=wrap;html=1;comic=1;strokeColor=default;fontFamily=Comic Sans MS;fontSize=12;fontColor=default;startSize=50;fillColor=#d5e8d4;" vertex="1" parent="IQC8q7tDYYNDIFrGt10--55">
          <mxGeometry x="150" width="50" height="25" as="geometry" />
        </mxCell>
        <mxCell id="IQC8q7tDYYNDIFrGt10--49" value="5" style="rounded=0;whiteSpace=wrap;html=1;comic=1;strokeColor=default;fontFamily=Comic Sans MS;fontSize=12;fontColor=default;startSize=50;fillColor=#d5e8d4;" vertex="1" parent="IQC8q7tDYYNDIFrGt10--55">
          <mxGeometry x="200" width="20" height="25" as="geometry" />
        </mxCell>
        <mxCell id="IQC8q7tDYYNDIFrGt10--50" value="zlend" style="rounded=0;whiteSpace=wrap;html=1;comic=1;strokeColor=default;fontFamily=Comic Sans MS;fontSize=12;fontColor=default;startSize=50;fillColor=#d5e8d4;" vertex="1" parent="IQC8q7tDYYNDIFrGt10--55">
          <mxGeometry x="220" width="40" height="25" as="geometry" />
        </mxCell>
      </root>
    </mxGraphModel>
  </diagram>
</mxfile>
